<?xml version="1.0" encoding="utf-8"?>
<!-- Generator: Adobe Illustrator 18.1.1, SVG Export Plug-In . SVG Version: 6.00 Build 0)  -->
<svg version="1.1" id="Layer_1" xmlns="http://www.w3.org/2000/svg" xmlns:xlink="http://www.w3.org/1999/xlink" x="0px" y="0px"
	 viewBox="0 0 246.3 288.7" enable-background="new 0 0 246.3 288.7" xml:space="preserve">
<g>
	<path fill="#103A33" d="M21.7,243.6v3.8c0,0.8-0.3,1.3-1.3,1.3h-19c-1.1,0-1.3-0.5-1.3-1.3v-27.5c0-1.1,0.5-1.3,1.3-1.3h4.5
		c0.8,0,1.3,0.3,1.3,1.3v22.4h13.2C21.4,242.3,21.7,242.8,21.7,243.6z"/>
	<path fill="#103A33" d="M54,248.7h-4.8c-1,0-1.4-0.3-1.7-1.4l-1.3-3.6H35l-1.3,3.6c-0.4,1.1-0.7,1.4-1.7,1.4h-4.8
		c-1,0-1-0.7-0.8-1.3L36.6,220c0.4-1,0.9-1.4,1.9-1.4h4.4c1,0,1.5,0.5,1.9,1.4l10.1,27.4C55,248,55,248.7,54,248.7z M44.1,237.3
		l-3.4-10.1l-3.4,10.1H44.1z"/>
	<path fill="#103A33" d="M85.6,219.9v27.5c0,0.8-0.3,1.3-1.3,1.3h-4.2c-1.1,0-1.5-0.6-2.1-1.6l-9.7-15.7v15.9c0,1.1-0.5,1.3-1.3,1.3
		h-4.5c-0.8,0-1.3-0.3-1.3-1.3v-27.5c0-0.8,0.3-1.3,1.3-1.3h4.3c1.1,0,1.5,0.6,2.1,1.6l9.7,15.6v-15.9c0-1.1,0.5-1.3,1.3-1.3h4.4
		C85.1,218.6,85.6,218.9,85.6,219.9z"/>
	<path fill="#103A33" d="M118.4,233.2v6.6c-0.4,6.6-7.1,9.5-12.3,9.5c-5.4,0-12.3-2.7-12.3-9.9v-11.3c0-7.2,6.9-10.3,12.3-10.3
		c5.7,0,12.3,3.3,12.3,9.4c0,1.1-0.3,1.3-1.3,1.3h-4.4c-1.3,0-1.1-0.9-1.3-1.6c-0.5-1.4-2.1-2.8-5.2-2.8c-3,0-5,2-5,4.9v9.2
		c0,2.9,2,4.6,5,4.6c3,0,5.1-1.4,5.1-4.9H107c-1.1,0-1.3-0.5-1.3-1.3v-3.6c0-0.8,0.3-1.3,1.3-1.3h10
		C118.1,231.9,118.4,232.4,118.4,233.2z"/>
	<path fill="#103A33" d="M150.3,219.9v19.6c0,7.2-6.7,9.9-12.1,9.9c-5.4,0-12.1-2.7-12.1-9.9v-19.6c0-1.1,0.5-1.3,1.3-1.3h4.5
		c0.8,0,1.3,0.3,1.3,1.3v18.6c0,2.9,1.9,4.5,4.9,4.5c3,0,4.9-1.6,4.9-4.5v-18.6c0-1.1,0.5-1.3,1.3-1.3h4.5
		C149.8,218.6,150.3,218.9,150.3,219.9z"/>
	<path fill="#103A33" d="M184.1,248.7h-4.8c-1,0-1.4-0.3-1.7-1.4l-1.3-3.6h-11.2l-1.3,3.6c-0.4,1.1-0.7,1.4-1.7,1.4h-4.8
		c-1,0-1-0.7-0.8-1.3l10.2-27.4c0.4-1,0.9-1.4,1.9-1.4h4.4c1,0,1.5,0.5,1.9,1.4l10.1,27.4C185.1,248,185.1,248.7,184.1,248.7z
		 M174.2,237.3l-3.4-10.1l-3.4,10.1H174.2z"/>
	<path fill="#103A33" d="M215,233.2v6.6c-0.4,6.6-7.1,9.5-12.3,9.5c-5.4,0-12.3-2.7-12.3-9.9v-11.3c0-7.2,6.9-10.3,12.3-10.3
		c5.7,0,12.3,3.3,12.3,9.4c0,1.1-0.3,1.3-1.3,1.3h-4.4c-1.3,0-1.1-0.9-1.3-1.6c-0.5-1.4-2.1-2.8-5.2-2.8c-3,0-5,2-5,4.9v9.2
		c0,2.9,2,4.6,5,4.6c3,0,5.1-1.4,5.1-4.9h-4.1c-1.1,0-1.3-0.5-1.3-1.3v-3.6c0-0.8,0.3-1.3,1.3-1.3h10
		C214.7,231.9,215,232.4,215,233.2z"/>
	<path fill="#103A33" d="M246.3,243.6v3.8c0,0.8-0.3,1.3-1.3,1.3h-20.5c-1.1,0-1.3-0.5-1.3-1.3v-27.5c0-0.8,0.3-1.3,1.3-1.3h19.7
		c1.1,0,1.3,0.5,1.3,1.3v3.8c0,0.8-0.3,1.3-1.3,1.3h-13.8v5h12.3c1.1,0,1.3,0.5,1.3,1.3v3.6c0,0.8-0.3,1.3-1.3,1.3h-12.3v6h14.6
		C246,242.3,246.3,242.8,246.3,243.6z"/>
</g>
<g>
	<path fill="#103A33" d="M55.2,273.3v6.6c-0.4,6.6-7.1,9.5-12.3,9.5c-5.4,0-12.3-2.7-12.3-9.9v-11.3c0-7.2,6.9-10.3,12.3-10.3
		c5.7,0,12.3,3.3,12.3,9.4c0,1.1-0.3,1.3-1.3,1.3h-4.4c-1.3,0-1.1-0.9-1.3-1.6c-0.5-1.4-2.1-2.8-5.2-2.8c-3,0-5,2-5,4.9v9.2
		c0,2.9,2,4.6,5,4.6c3,0,5.1-1.4,5.1-4.9h-4.1c-1.1,0-1.3-0.5-1.3-1.3v-3.6c0-0.8,0.3-1.3,1.3-1.3h10
		C55,271.9,55.2,272.4,55.2,273.3z"/>
	<path fill="#103A33" d="M88.5,288.7h-4.8c-1,0-1.4-0.3-1.7-1.4l-1.3-3.6H69.5l-1.3,3.6c-0.4,1.1-0.7,1.4-1.7,1.4h-4.8
		c-1,0-1-0.7-0.8-1.3L71,260c0.4-1,0.9-1.4,1.9-1.4h4.4c1,0,1.5,0.5,1.9,1.4l10.1,27.4C89.5,288,89.5,288.7,88.5,288.7z M78.5,277.3
		l-3.4-10.1l-3.4,10.1H78.5z"/>
	<path fill="#103A33" d="M120.1,287.3l-6.5-9.4c2.8-1,6.4-4.3,6.4-9.1c0-2.9-1-5.5-2.7-7.2c-1.9-1.9-4.1-2.9-9.1-2.9H96.9
		c-1.1,0-1.3,0.5-1.3,1.3v27.4c0,1.1,0.5,1.3,1.3,1.3h4.5c0.8,0,1.3-0.3,1.3-1.3v-8.3h3.4l5.6,8.3c0.6,1,1.2,1.4,2.3,1.4h5.4
		C120.3,288.7,120.5,287.9,120.1,287.3z M108.5,272.7h-0.9h-4.9v-7.6h5.9c2.4,0,4.2,1.5,4.2,3.9
		C112.9,271.1,110.8,272.7,108.5,272.7z"/>
	<path fill="#103A33" d="M152.1,268.9v9.5c0,7.2-6.9,10.3-12.3,10.3h-10.2c-1.1,0-1.3-0.5-1.3-1.3V260c0-0.8,0.3-1.3,1.3-1.3h10.2
		C145.2,258.6,152.1,261.8,152.1,268.9z M144.9,269.6c0-2.9-2.1-4.6-5.1-4.6h-4.4v17.4h4.4c3,0,5.1-1.6,5.1-4.6V269.6z"/>
	<path fill="#103A33" d="M183.4,283.7v3.8c0,0.8-0.3,1.3-1.3,1.3h-20.5c-1.1,0-1.3-0.5-1.3-1.3V260c0-0.8,0.3-1.3,1.3-1.3h19.7
		c1.1,0,1.3,0.5,1.3,1.3v3.8c0,0.8-0.3,1.3-1.3,1.3h-13.8v5h12.3c1.1,0,1.3,0.5,1.3,1.3v3.6c0,0.8-0.3,1.3-1.3,1.3h-12.3v6h14.6
		C183.1,282.3,183.4,282.8,183.4,283.7z"/>
	<path fill="#103A33" d="M215.6,260v27.5c0,0.8-0.3,1.3-1.3,1.3h-4.2c-1.1,0-1.5-0.6-2.1-1.6l-9.7-15.7v15.9c0,1.1-0.5,1.3-1.3,1.3
		h-4.5c-0.8,0-1.3-0.3-1.3-1.3V260c0-0.8,0.3-1.3,1.3-1.3h4.3c1.1,0,1.5,0.6,2.1,1.6l9.7,15.6V260c0-1.1,0.5-1.3,1.3-1.3h4.4
		C215.1,258.6,215.6,258.9,215.6,260z"/>
</g>
<path fill="#49B749" d="M230.6,71.6c0-39.6-32.1-71.6-71.6-71.6c-39.6,0-71.6,32.1-71.6,71.6c0,35.8,26.3,65.5,60.6,70.8v21.3
	c0,3.2,1.5,4.1,4.1,4.1h1.2h12.1h0.6c2.5,0,4.1-0.8,4.1-4.1v-21.3C204.3,137.1,230.6,107.4,230.6,71.6z"/>
<path fill="#2D95D1" d="M158.9,71.6C158.9,32.1,126.9,0,87.3,0C47.8,0,15.7,32.1,15.7,71.6s32.1,71.6,71.6,71.6v21.2l0,0
	c0,0,0,0,0,0c0,1.8,1.4,3.2,3.2,3.2c0.7,0,1.4-0.2,1.9-0.6l0,0c11.1-8.2,37.6-29.2,53.6-54.4c4.2-6,7.5-12.6,9.7-19.8
	c2-6,3.2-12.1,3.2-18.3l-0.1,0C158.9,73.6,158.9,72.6,158.9,71.6z"/>
</svg>
